<svg xmlns="http://www.w3.org/2000/svg" viewBox="0 0 435.68 342.02"><defs><style>.cls-1{font-size:76px;font-family:JetBrainsMono-Bold, JetBrains Mono;font-weight:700;}.cls-2{letter-spacing:-0.03em;}.cls-3{letter-spacing:-0.08em;}.cls-4{letter-spacing:0em;}.cls-5{letter-spacing:-0.4em;}.cls-6{letter-spacing:-0.02em;}.cls-7{letter-spacing:-0.03em;}.cls-8{letter-spacing:-0.02em;}.cls-9{letter-spacing:-0.02em;}.cls-10{letter-spacing:-0.03em;}.cls-11{letter-spacing:-0.01em;}.cls-12{letter-spacing:-0.02em;}</style></defs><title>gitpushbored</title><g id="Image"><path d="M1131,216H745.46a25,25,0,0,0-25.09,24.69V461.05a25,25,0,0,0,25.09,24.69H1131a25,25,0,0,0,25.09-24.69V240.67A25,25,0,0,0,1131,216Zm-5.51,236H747.29V243.68h378.16Z" transform="translate(-720.37 -215.98)"/><path d="M1019.59,529.34H990.15l-23.07-38.78h-59l-22.15,38.78H856.82c-5.72,0-10.4,6.45-10.4,14.33S851.1,558,856.82,558h162.77c5.72,0,10.4-6.45,10.4-14.33S1025.31,529.34,1019.59,529.34Z" transform="translate(-720.37 -215.98)"/></g><g id="Text"><text class="cls-1" transform="translate(44.63 117.02)"><tspan class="cls-2">g<tspan class="cls-3" x="43.21" y="0">i</tspan><tspan class="cls-4" x="82.94" y="0">t</tspan><tspan class="cls-5" x="128.54" y="0">  </tspan><tspan class="cls-6" x="158.94" y="0">p</tspan><tspan class="cls-7" x="202.99" y="0">u</tspan><tspan class="cls-8" x="246.58" y="0">s</tspan><tspan class="cls-4" x="290.54" y="0">h</tspan></tspan><tspan class="cls-9" x="0" y="91.2">b</tspan><tspan class="cls-10" x="43.92" y="91.2">o</tspan><tspan class="cls-11" x="87.31" y="91.2">r</tspan><tspan class="cls-12" x="132.1" y="91.2">e</tspan><tspan x="175.89" y="91.2">d</tspan></text></g></svg>